<svg id="Blueberry_Citrus" data-name="Blueberry Citrus" xmlns="http://www.w3.org/2000/svg" viewBox="0 0 287.93 37.75"><defs><style>.cls-1{fill:#f58725;}.cls-2{fill:#f9c21f;}.cls-3{fill:#ddc8a9;}</style></defs><title>snaggl_logo_EDGES_ONLY</title><path class="cls-1" d="M248,77.8c-0.66,0-1.33,0-2,0a1.85,1.85,0,0,1-1.94-2.07,1.79,1.79,0,0,1,1.85-2c1.42-.08,2.85-0.06,4.28,0a1.84,1.84,0,0,1,1.84,2,1.89,1.89,0,0,1-1.75,2,17.77,17.77,0,0,1-2.29,0v0Z" transform="translate(0 -40.07)"/><path class="cls-2" d="M239,57.08c0.66,0,1.33,0,2,0a1.68,1.68,0,0,1,1.83,2A1.78,1.78,0,0,1,241,61c-1.33,0-2.66,0-4,0A1.83,1.83,0,0,1,235,58.92a1.79,1.79,0,0,1,2-1.86c0.66,0,1.33,0,2,0v0Z" transform="translate(0 -40.07)"/><path class="cls-2" d="M240.73,65.26a2.19,2.19,0,0,1,2.1,2.21,2.15,2.15,0,0,1-2.1,2,2.1,2.1,0,0,1-2.17-2.11A2.2,2.2,0,0,1,240.73,65.26Z" transform="translate(0 -40.07)"/><path class="cls-1" d="M248.85,48.83a1.69,1.69,0,0,1,2,1.81,2.08,2.08,0,0,1-2,2.11A1.94,1.94,0,0,1,246.71,51C246.52,49.74,247.48,48.86,248.85,48.83Z" transform="translate(0 -40.07)"/><path class="cls-2" d="M254.43,42.25a1.91,1.91,0,0,1-2.16,2.13,2.05,2.05,0,0,1-2.07-2.15,2.2,2.2,0,0,1,2.22-2.07A2.14,2.14,0,0,1,254.43,42.25Z" transform="translate(0 -40.07)"/><path class="cls-1" d="M40.65,73.73c-1.42-.08-2.85-0.06-4.28,0a1.84,1.84,0,0,0-1.84,2,1.89,1.89,0,0,0,1.75,2,17.78,17.78,0,0,0,2.29,0v0c0.66,0,1.33,0,2,0a1.85,1.85,0,0,0,1.94-2.07A1.79,1.79,0,0,0,40.65,73.73Z" transform="translate(0 -40.07)"/><path class="cls-1" d="M49.54,57.06c-0.66,0-1.33,0-2,0v0c-0.66,0-1.33,0-2,0a1.68,1.68,0,0,0-1.83,2,1.78,1.78,0,0,0,1.87,2c1.33,0,2.66,0,4,0a1.83,1.83,0,0,0,1.94-2.07A1.79,1.79,0,0,0,49.54,57.06Z" transform="translate(0 -40.07)"/><path class="cls-2" d="M45.83,65.26a2.19,2.19,0,0,0-2.1,2.21,2.15,2.15,0,0,0,2.1,2A2.1,2.1,0,0,0,48,67.4,2.2,2.2,0,0,0,45.83,65.26Z" transform="translate(0 -40.07)"/><path class="cls-2" d="M35.74,50.64a2.08,2.08,0,0,0,2,2.11A1.94,1.94,0,0,0,39.85,51c0.19-1.22-.78-2.11-2.15-2.13A1.69,1.69,0,0,0,35.74,50.64Z" transform="translate(0 -40.07)"/><path class="cls-1" d="M34.28,44.37a2.05,2.05,0,0,0,2.07-2.15,2.2,2.2,0,0,0-2.22-2.07,2.14,2.14,0,0,0-2,2.09A1.91,1.91,0,0,0,34.28,44.37Z" transform="translate(0 -40.07)"/><path class="cls-1" d="M270.72,77.8h-2.3C268,77.83,273.61,77.8,270.72,77.8Z" transform="translate(0 -40.07)"/><path class="cls-3" d="M278.71,40.07l0,0.07c-5.07-.18-10.16.08-15.23,0.06a1.93,1.93,0,0,0-2.17,2.07c0,1.39.81,2,2.12,2.11,1.83,0.17,2.58.85,2.51,2.23s-1,2-2.75,2c-2.31,0-4.62,0-6.92,0a2,2,0,0,0-2.23,2,2.06,2.06,0,0,0,2.24,2.17c1.33,0,2.67,0,4,0a2,2,0,0,1,1.45.38,2.12,2.12,0,0,1,.73,2.35,2,2,0,0,1-2.14,1.41c-3.49,0-7,0-10.46,0-1.66,0-2.49.72-2.51,2.05s0.83,2,2.48,2.07,3.39,0,5.08.07a2.08,2.08,0,0,1,0,4.12c-0.41,0-.82,0-1.23,0q-2.63,0-2.63,2.09c0,1.38.87,2.09,2.61,2.1,3.08,0,6.16,0,9.23,0a1.94,1.94,0,0,1,2.12,2,1.85,1.85,0,0,1-1.89,2.15c-1.07.09-2.15,0.11-3.22,0.13-2,0-2.85.62-2.85,2s0.93,2.07,2.81,2.07h9.43c0.34,0,.66,0,1-0.06h17.7V40.07h-9.22Z" transform="translate(0 -40.07)"/><path class="cls-3" d="M36.73,57c-3.49,0-7,0-10.46,0a2,2,0,0,1-2.14-1.41,2.12,2.12,0,0,1,.73-2.35,2,2,0,0,1,1.45-.38c1.33,0,2.67,0,4,0a2.06,2.06,0,0,0,2.24-2.17,2,2,0,0,0-2.23-2c-2.31,0-4.62,0-6.92,0-1.8,0-2.69-.67-2.75-2s0.68-2.06,2.51-2.23c1.32-.12,2.14-0.72,2.12-2.11A1.93,1.93,0,0,0,23.1,40.2c-2,0-3.94,0-5.91-.07V40.07H0V77.73H4.68c0.33,0,.66.06,1,0.06,3.39,0,6.77,0,10.16,0H26.76c1.89,0,2.82-.7,2.81-2.07s-0.86-2-2.85-2c-1.08,0-2.15,0-3.22-.13a1.85,1.85,0,0,1-1.89-2.15,1.94,1.94,0,0,1,2.12-2c3.08,0,6.16,0,9.23,0,1.74,0,2.61-.72,2.61-2.1s-0.88-2.07-2.63-2.09c-0.41,0-.82,0-1.23,0a2.08,2.08,0,0,1,0-4.12c1.69-.09,3.38,0,5.08-0.07s2.49-.74,2.48-2.07S38.39,57,36.73,57Z" transform="translate(0 -40.07)"/></svg>