<svg id="Blueberry_Citrus" data-name="Blueberry Citrus" xmlns="http://www.w3.org/2000/svg" viewBox="0 0 156.94 61.03"><defs><style>.cls-1{fill:#f58725;}</style></defs><title>snaggl_logo</title><path class="cls-1" d="M199,77.07c0.21-1,.4-1.91.61-2.94-0.33.28-.61,0.52-0.9,0.75a12,12,0,0,1-6.27,2.76c-3.61.39-6.77-.57-9.11-3.51a9.32,9.32,0,0,1-1.94-4.85A15.06,15.06,0,0,1,184,59a16.14,16.14,0,0,1,6.17-5.52,13.44,13.44,0,0,1,6.39-1.56,8.28,8.28,0,0,1,6.86,3.5c0.06-.24.11-0.46,0.15-0.68L204,52.65a0.24,0.24,0,0,1,.27-0.26h5.5l0.14,0-0.48,2.32-1.89,9.07-1.89,9.07c-0.32,1.52-.58,3.06-1,4.56M193,71.9c0.38,0,.77,0,1.15-0.12a9.08,9.08,0,0,0,5.42-3.17,8,8,0,0,0,2-4.86,5.39,5.39,0,0,0-2-4.77,5.94,5.94,0,0,0-5.28-1,9.11,9.11,0,0,0-6.17,4.84,6.78,6.78,0,0,0-.66,5.09A5.51,5.51,0,0,0,193,71.9Z" transform="translate(-67.19 -40.07)"/><path class="cls-1" d="M143.28,55.46c0.19-.92.36-1.75,0.53-2.58,0.12-.56,0-0.48.57-0.48h5.38l-5.09,24.83h-5.85l0.62-3.08-0.2.15a12.35,12.35,0,0,1-6.55,3.29c-3.76.54-7-.39-9.52-3.44a9.37,9.37,0,0,1-2-5.09A15,15,0,0,1,123.87,59a15.87,15.87,0,0,1,8.08-6.35,12.18,12.18,0,0,1,5.11-.72,8.07,8.07,0,0,1,6.13,3.38ZM133,71.9c0.37,0,.89-0.08,1.4-0.19a9,9,0,0,0,5.07-3.11,8,8,0,0,0,2-4.93,5.44,5.44,0,0,0-1.63-4.32,5.74,5.74,0,0,0-5.41-1.46,9,9,0,0,0-6.82,5.71,6.14,6.14,0,0,0,0,5C128.63,70.84,130.47,71.81,133,71.9Z" transform="translate(-67.19 -40.07)"/><path class="cls-1" d="M102.54,52.39L102,55l0.68-.54a12.41,12.41,0,0,1,6.85-2.59,9.35,9.35,0,0,1,4.19.64,6.65,6.65,0,0,1,4.09,5.13,12.38,12.38,0,0,1-.19,5q-1.46,7.1-2.89,14.21a0.34,0.34,0,0,1-.42.33h-5.5c0.12-.61.23-1.19,0.35-1.76l1.9-9.37c0.2-1,.42-2,0.6-3a6.81,6.81,0,0,0,0-2.74,3.45,3.45,0,0,0-3.07-2.83,7.08,7.08,0,0,0-7.16,3.33,9.68,9.68,0,0,0-1.37,3.73c-0.58,2.94-1.18,5.87-1.78,8.8l-0.72,3.58c0,0.08,0,.17-0.06.25H91.7c0-.1,0-0.18,0-0.27q2.44-12.08,4.86-24.16a0.4,0.4,0,0,1,.49-0.39c1.7,0,3.39,0,5.09,0h0.37Z" transform="translate(-67.19 -40.07)"/><path class="cls-1" d="M67.19,73.53l4.29-4a9.1,9.1,0,0,0,3,2.11,8.83,8.83,0,0,0,6.7.33A3.62,3.62,0,0,0,83,70.73a1.68,1.68,0,0,0-.21-2.31,4.4,4.4,0,0,0-1.74-1c-1.41-.44-2.83-0.85-4.24-1.29A13.79,13.79,0,0,1,73,64.48a4.62,4.62,0,0,1-2.2-4.28,7.39,7.39,0,0,1,2.44-5.08,11.65,11.65,0,0,1,6-2.94,14.46,14.46,0,0,1,7.95.62A10.66,10.66,0,0,1,91,55.26l0.19,0.2-3.92,4.06c-0.34-.28-0.63-0.54-0.94-0.76a8.54,8.54,0,0,0-4.16-1.48,8.71,8.71,0,0,0-3.4.23,3.28,3.28,0,0,0-1.52.86,1.2,1.2,0,0,0,.26,2.06,9.71,9.71,0,0,0,2.66,1,37.65,37.65,0,0,1,4.72,1.39,9.46,9.46,0,0,1,2.58,1.49A5.16,5.16,0,0,1,89.29,69C89,72.34,87,74.52,84.19,76.06a14.12,14.12,0,0,1-6.26,1.66,13.35,13.35,0,0,1-9.31-2.83c-0.37-.3-0.71-0.64-1.05-1C67.44,73.81,67.33,73.67,67.19,73.53Z" transform="translate(-67.19 -40.07)"/><path class="cls-1" d="M202.27,89.39c0.08-.34.14-0.69,0.22-1l1.08-5.14L204.85,77c0.35-1.43.61-2.88,0.9-4.32L207.58,64c0.16-.75.31-1.51,0.47-2.27h0l1.63-7.91,0.29-1.4-0.08,0h-5.58a0.32,0.32,0,0,0-.21.2c-0.08.3-.13,0.61-0.19,0.91l-0.4,1.91-0.16-.19a8,8,0,0,0-6.12-3.3,12.6,12.6,0,0,0-6.74,1.42,16.41,16.41,0,0,0-8.84,11.27,12.19,12.19,0,0,0,0,5.9,8.88,8.88,0,0,0,5.21,6.34,10.75,10.75,0,0,0,9.27-.3,13.57,13.57,0,0,0,3.51-2.44v0.1l-1.67,8L197,86.54a27.3,27.3,0,0,1-1,3.7,10.12,10.12,0,0,1-6.17,4.83c-2.12.49-3.88,0.36-5.5-1.21a5.89,5.89,0,0,1-1.6-4.55l4.76,0.57a23.69,23.69,0,0,1-5.33-5.83,18.44,18.44,0,0,1-3-6.63c-5.57,21,4.79,23.66,7.82,23.66C195.93,101.11,200.65,95.94,202.27,89.39Zm-7.71-17.67c-0.5.11-1,.14-1.52,0.21a5.56,5.56,0,0,1-5.53-4.06,6.77,6.77,0,0,1,.66-5.09,9.05,9.05,0,0,1,6.17-4.83,5.86,5.86,0,0,1,5.71,1.43,5.43,5.43,0,0,1,1.6,4.33,7.88,7.88,0,0,1-1.79,4.6A9.09,9.09,0,0,1,194.56,71.71Z" transform="translate(-67.19 -40.07)"/><path class="cls-1" d="M218.27,40.07L211,74.79a2.29,2.29,0,0,0,2.34,2.42h4.73l1.34-5.44s-1.93,0-1.58-1.67l1.8-8.57,1.94-9.3,2.07-9.89c0.16-.75.31-1.51,0.47-2.27h-5.86Z" transform="translate(-67.19 -40.07)"/><path class="cls-1" d="M172.23,89.39c0.08-.34.14-0.69,0.22-1l1.08-5.14L174.82,77c0.35-1.43.61-2.88,0.9-4.32L177.54,64c0.16-.75.31-1.51,0.47-2.27h0l1.63-7.91,0.29-1.4-0.08,0h-5.58a0.32,0.32,0,0,0-.21.2c-0.08.3-.13,0.61-0.19,0.91l-0.4,1.91-0.16-.19a8,8,0,0,0-6.12-3.3,12.6,12.6,0,0,0-6.74,1.42,16.41,16.41,0,0,0-8.84,11.27,12.19,12.19,0,0,0,0,5.9,8.88,8.88,0,0,0,5.21,6.34,10.75,10.75,0,0,0,9.27-.3,13.57,13.57,0,0,0,3.51-2.44v0.1l-1.67,8L167,86.54a27.3,27.3,0,0,1-1,3.7,10.12,10.12,0,0,1-6.17,4.83c-2.12.49-3.88,0.36-5.5-1.21a5.89,5.89,0,0,1-1.6-4.55l4.76,0.57a23.69,23.69,0,0,1-5.33-5.83,18.44,18.44,0,0,1-3-6.63c-5.57,21,4.79,23.66,7.82,23.66C165.89,101.11,170.61,95.94,172.23,89.39Zm-7.71-17.67c-0.5.11-1,.14-1.52,0.21a5.56,5.56,0,0,1-5.53-4.06,6.77,6.77,0,0,1,.66-5.09,9.05,9.05,0,0,1,6.17-4.83A5.86,5.86,0,0,1,170,59.38a5.43,5.43,0,0,1,1.6,4.33,7.88,7.88,0,0,1-1.79,4.6A9.09,9.09,0,0,1,164.52,71.71Z" transform="translate(-67.19 -40.07)"/></svg>